<svg width="8" height="12" viewBox="0 0 8 12" fill="none" xmlns="http://www.w3.org/2000/svg">
<path fill-rule="evenodd" clip-rule="evenodd" d="M7.08905 5.41086C7.24527 5.56713 7.33303 5.77906 7.33303 6.00003C7.33303 6.221 7.24527 6.43292 7.08905 6.58919L2.37488 11.3034C2.29801 11.383 2.20605 11.4464 2.10438 11.4901C2.00271 11.5338 1.89336 11.5568 1.78271 11.5577C1.67206 11.5587 1.56233 11.5376 1.45992 11.4957C1.3575 11.4538 1.26446 11.3919 1.18622 11.3137C1.10797 11.2354 1.04609 11.1424 1.00419 11.04C0.962293 10.9376 0.941209 10.8278 0.94217 10.7172C0.943132 10.6065 0.96612 10.4972 1.00979 10.3955C1.05347 10.2939 1.11695 10.2019 1.19655 10.125L5.32155 6.00003L1.19655 1.87503C1.04475 1.71786 0.960752 1.50736 0.96265 1.28886C0.964549 1.07036 1.05219 0.861353 1.2067 0.706846C1.3612 0.552339 1.57021 0.464699 1.78871 0.4628C2.00721 0.460901 2.21771 0.544897 2.37488 0.696695L7.08905 5.41086Z" fill="#673AB7"/>
</svg>
