<svg width="12" height="8" viewBox="0 0 12 8" fill="none" xmlns="http://www.w3.org/2000/svg">
<path fill-rule="evenodd" clip-rule="evenodd" d="M6.58926 7.08917C6.43299 7.24539 6.22106 7.33316 6.00009 7.33316C5.77912 7.33316 5.5672 7.24539 5.41093 7.08917L0.69676 2.375C0.617168 2.29813 0.553682 2.20617 0.510008 2.1045C0.466334 2.00283 0.443346 1.89348 0.442385 1.78283C0.441423 1.67219 0.462508 1.56245 0.504409 1.46004C0.546309 1.35763 0.608188 1.26458 0.686432 1.18634C0.764675 1.10809 0.857718 1.04622 0.960132 1.00432C1.06254 0.962415 1.17228 0.94133 1.28293 0.942292C1.39358 0.943253 1.50293 0.966242 1.6046 1.00992C1.70627 1.05359 1.79822 1.11708 1.87509 1.19667L6.00009 5.32167L10.1251 1.19667C10.2823 1.04487 10.4928 0.960874 10.7113 0.962772C10.9298 0.964671 11.1388 1.05231 11.2933 1.20682C11.4478 1.36133 11.5354 1.57034 11.5373 1.78883C11.5392 2.00733 11.4552 2.21783 11.3034 2.375L6.58926 7.08917Z" fill="#673AB7"/>
</svg>
